<?xml version="1.0" encoding="utf-8"?>
<!-- Generator: Adobe Illustrator 24.1.0, SVG Export Plug-In . SVG Version: 6.00 Build 0)  -->
<svg version="1.1" id="Layer_1" xmlns="http://www.w3.org/2000/svg" xmlns:xlink="http://www.w3.org/1999/xlink" x="0px" y="0px"
	 viewBox="0 0 640 640" style="enable-background:new 0 0 640 640;" xml:space="preserve">
<style type="text/css">
	.st0{fill:#141516;}
	.st1{fill:#231F20;}
	.st2{fill:#050505;}
	.st3{fill:#231F20;stroke:#000000;stroke-miterlimit:10;}
	.st4{fill:none;stroke:#000000;stroke-width:12;stroke-miterlimit:10;}
</style>
<g>
	<g>
		<g>
			<path class="st1" d="M441.62,317.37c-20.92,0-37.95-22.91-37.95-51.08c0-28.16,17.02-51.08,37.95-51.08
				c20.92,0,37.95,22.91,37.95,51.08C479.56,294.46,462.54,317.37,441.62,317.37z M441.62,219.33c-18.65,0-33.83,21.07-33.83,46.96
				c0,25.89,15.18,46.96,33.83,46.96c18.66,0,33.83-21.07,33.83-46.96C475.45,240.4,460.27,219.33,441.62,219.33z"/>
		</g>
		<g>
			<path class="st2" d="M532.56,406.38H353.23l3-18.82c3.74-23.47,19.47-43.28,41.48-52.25l0,0l17.53-7.14l18.21,37.72
				c3.81,7.9,15.06,7.9,18.88,0l18.21-37.72l17.53,7.14l0,0c22.01,8.97,37.74,28.78,41.48,52.25L532.56,406.38z"/>
		</g>
		<g>
			<polygon class="st1" points="415.55,331.61 414.3,328.66 423.96,324.56 427.54,310.53 430.65,311.32 426.67,326.89 			"/>
		</g>
		<g>
			<polygon class="st1" points="470.07,331.61 458.94,326.89 454.97,311.32 458.07,310.53 461.65,324.56 471.32,328.66 			"/>
		</g>
		<g>
			<path class="st2" d="M404.51,263.82c0,0-0.34-39.25,26.9-31.29c0,0,12.16,3.15,25.15-1.15c0,0,20.96,1.57,18.86,33.85
				c0,0,7.55-15.93-0.42-47.79c-7.39-29.55-59.86-18.71-65.75-3.6c-1.14,2.91-2.44,5.76-3.83,8.56
				C402.39,228.54,398.32,243.88,404.51,263.82z"/>
		</g>
		<g>
			<path class="st2" d="M410.72,228.06c0,0-15.51,19.99-1.38,63.93"/>
		</g>
		<g>
			<path class="st2" d="M470.12,226.74c0,0,11.59,29.81,3.51,65.26"/>
		</g>
	</g>
	<g>
		<g>
			<rect x="44.93" y="406.08" width="550.14" height="3.2"/>
		</g>
		<g>
			<rect x="74.81" y="407.68" width="3.2" height="33.52"/>
		</g>
		<g>
			<rect x="566.34" y="407.68" width="3.2" height="33.52"/>
		</g>
		<g>
			<rect x="120.89" y="388.95" class="st0" width="154.84" height="15.66"/>
			<path d="M277.34,406.21H119.29v-18.86h158.04V406.21z M122.49,403.01h151.64v-12.46H122.49V403.01z"/>
		</g>
		<g>
			<rect x="135.03" y="362.52" class="st0" width="154.84" height="15.66"/>
			<path d="M291.48,379.78H133.44v-18.86h158.04V379.78z M136.63,376.58h151.64v-12.46H136.63V376.58z"/>
		</g>
		<g>
			<rect x="106.72" y="337.53" class="st0" width="154.84" height="15.66"/>
			<path d="M263.16,354.79H105.12v-18.86h158.04V354.79z M108.32,351.59h151.64v-12.46H108.32V351.59z"/>
		</g>
		<g>
			<rect x="135.03" y="314.28" class="st0" width="154.84" height="15.66"/>
			<path d="M291.48,331.54H133.44v-18.86h158.04V331.54z M136.63,328.34h151.64v-12.46H136.63V328.34z"/>
		</g>
	</g>
</g>
</svg>
