<?xml version="1.0" encoding="utf-8"?>
<!-- Generator: Adobe Illustrator 24.1.0, SVG Export Plug-In . SVG Version: 6.00 Build 0)  -->
<svg version="1.1" id="Layer_1" xmlns="http://www.w3.org/2000/svg" xmlns:xlink="http://www.w3.org/1999/xlink" x="0px" y="0px"
	 viewBox="0 0 640 640" style="enable-background:new 0 0 640 640;" xml:space="preserve">
<style type="text/css">
	.st0{fill:#141516;}
	.st1{fill:#231F20;}
	.st2{fill:#050505;}
	.st3{fill:#231F20;stroke:#000000;stroke-miterlimit:10;}
	.st4{fill:none;stroke:#000000;stroke-width:12;stroke-miterlimit:10;}
</style>
<g>
	<g>
		<g>
			<path class="st1" d="M447.56,318.57c-20.92,0-37.95-22.91-37.95-51.08c0-28.16,17.02-51.08,37.95-51.08
				c20.92,0,37.95,22.91,37.95,51.08C485.51,295.66,468.49,318.57,447.56,318.57z M447.56,220.53c-18.65,0-33.83,21.07-33.83,46.96
				c0,25.89,15.18,46.96,33.83,46.96c18.66,0,33.83-21.07,33.83-46.96C481.4,241.6,466.22,220.53,447.56,220.53z"/>
		</g>
		<g>
			<path class="st2" d="M538.51,407.58H359.18l3-18.82c3.74-23.47,19.47-43.28,41.48-52.25l0,0l17.53-7.14l19.64,40.67
				c3.24,6.71,12.79,6.71,16.02,0l19.64-40.67l17.53,7.14l0,0c22.01,8.97,37.74,28.78,41.48,52.25L538.51,407.58z"/>
		</g>
		<g>
			<polygon class="st1" points="421.5,332.81 420.25,329.86 429.91,325.76 433.49,311.73 436.59,312.52 432.62,328.09 			"/>
		</g>
		<g>
			<polygon class="st1" points="476.01,332.81 464.89,328.09 460.92,312.52 464.02,311.73 467.6,325.76 477.26,329.86 			"/>
		</g>
		<g>
			<path class="st2" d="M410.46,265.02c0,0-0.34-39.25,26.9-31.29c0,0,12.16,3.15,25.15-1.15c0,0,20.96,1.57,18.86,33.85
				c0,0,7.55-15.93-0.42-47.79c-7.39-29.55-59.86-18.71-65.75-3.6c-1.14,2.91-2.44,5.76-3.83,8.56
				C408.33,229.74,404.26,245.08,410.46,265.02z"/>
		</g>
		<g>
			<path class="st2" d="M411.38,223.6c0,0-18.31,23.6-1.63,75.49"/>
		</g>
		<g>
			<path class="st2" d="M481.52,222.04c0,0,13.68,35.2,4.15,77.05"/>
		</g>
	</g>
	<g>
		<g>
			<rect x="44.93" y="404.88" width="550.14" height="3.2"/>
		</g>
		<g>
			<rect x="74.81" y="406.48" width="3.2" height="33.52"/>
		</g>
		<g>
			<rect x="566.34" y="406.48" width="3.2" height="33.52"/>
		</g>
		<g>
			<rect x="120.89" y="387.75" class="st0" width="154.84" height="15.66"/>
			<path d="M277.34,405.01H119.29v-18.86h158.04V405.01z M122.49,401.81h151.64v-12.46H122.49V401.81z"/>
		</g>
		<g>
			<rect x="135.03" y="361.32" class="st0" width="154.84" height="15.66"/>
			<path d="M291.48,378.58H133.43v-18.86h158.04V378.58z M136.63,375.38h151.64v-12.46H136.63V375.38z"/>
		</g>
		<g>
			<rect x="106.72" y="336.33" class="st0" width="154.84" height="15.66"/>
			<path d="M263.16,353.59H105.12v-18.86h158.04V353.59z M108.32,350.39h151.64v-12.46H108.32V350.39z"/>
		</g>
		<g>
			<rect x="135.03" y="313.08" class="st0" width="154.84" height="15.66"/>
			<path d="M291.48,330.34H133.43v-18.86h158.04V330.34z M136.63,327.14h151.64v-12.46H136.63V327.14z"/>
		</g>
	</g>
</g>
</svg>
