<?xml version="1.0" encoding="utf-8"?>
<!-- Generator: Adobe Illustrator 24.1.0, SVG Export Plug-In . SVG Version: 6.00 Build 0)  -->
<svg version="1.1" id="Layer_1" xmlns="http://www.w3.org/2000/svg" xmlns:xlink="http://www.w3.org/1999/xlink" x="0px" y="0px"
	 viewBox="0 0 640 640" style="enable-background:new 0 0 640 640;" xml:space="preserve">
<style type="text/css">
	.st0{fill:#141516;}
	.st1{fill:#231F20;}
	.st2{fill:#050505;}
	.st3{fill:#231F20;stroke:#000000;stroke-miterlimit:10;}
	.st4{fill:none;stroke:#000000;stroke-width:12;stroke-miterlimit:10;}
</style>
<g>
	<g>
		<path class="st1" d="M444.92,318.02c-20.92,0-37.95-22.91-37.95-51.08c0-28.16,17.02-51.08,37.95-51.08
			c20.92,0,37.95,22.91,37.95,51.08C482.86,295.11,465.84,318.02,444.92,318.02z M444.92,219.99c-18.65,0-33.83,21.07-33.83,46.96
			c0,25.89,15.18,46.96,33.83,46.96c18.66,0,33.83-21.07,33.83-46.96C478.75,241.05,463.57,219.99,444.92,219.99z"/>
	</g>
	<g>
		<polygon class="st2" points="535.86,407.03 356.53,407.03 365.56,350.41 401.02,335.96 418.54,328.82 446.19,400.26 
			473.84,328.82 491.37,335.96 526.83,350.41 		"/>
	</g>
	<g>
		<polygon class="st1" points="418.85,332.26 417.6,329.31 427.26,325.21 430.84,311.18 433.94,311.97 429.97,327.54 		"/>
	</g>
	<g>
		<polygon class="st1" points="473.36,332.26 462.24,327.54 458.27,311.97 461.37,311.18 464.95,325.21 474.61,329.31 		"/>
	</g>
	<g>
		<polygon class="st2" points="456.8,402.19 436.01,402.19 436.4,398.82 438.03,384.58 438.99,376.24 439.97,367.65 436.31,364.11 
			446.01,350.25 456.48,364.6 453.44,367.14 454.17,374.73 455,383.4 456.48,398.82 		"/>
	</g>
	<g>
		<polygon class="st1" points="446,355.1 427.7,322.1 429.7,320.99 446.02,350.42 462.69,320.98 464.68,322.1 		"/>
	</g>
	<g>
		<path class="st2" d="M407.81,264.47c0,0-0.34-39.25,26.9-31.29c0,0,12.16,3.15,25.15-1.15c0,0,20.96,1.57,18.86,33.85
			c0,0,7.55-15.93-0.42-47.79c-7.39-29.55-59.86-18.71-65.75-3.6c-1.14,2.91-2.44,5.76-3.83,8.56
			C405.69,229.19,401.61,244.53,407.81,264.47z"/>
	</g>
	<g>
		<g>
			<rect x="44.93" y="405.43" width="550.14" height="3.2"/>
		</g>
		<g>
			<rect x="74.81" y="407.03" width="3.2" height="33.52"/>
		</g>
		<g>
			<rect x="566.34" y="407.03" width="3.2" height="33.52"/>
		</g>
		<g>
			<rect x="120.89" y="388.3" class="st0" width="154.84" height="15.66"/>
			<path d="M277.34,405.56H119.29V386.7h158.04V405.56z M122.49,402.36h151.64V389.9H122.49V402.36z"/>
		</g>
		<g>
			<rect x="135.03" y="361.87" class="st0" width="154.84" height="15.66"/>
			<path d="M291.48,379.13H133.43v-18.86h158.04V379.13z M136.63,375.93h151.64v-12.46H136.63V375.93z"/>
		</g>
		<g>
			<rect x="106.72" y="336.88" class="st0" width="154.84" height="15.66"/>
			<path d="M263.16,354.14H105.12v-18.86h158.04V354.14z M108.32,350.94h151.64v-12.46H108.32V350.94z"/>
		</g>
		<g>
			<rect x="135.03" y="313.63" class="st0" width="154.84" height="15.66"/>
			<path d="M291.48,330.89H133.43v-18.86h158.04V330.89z M136.63,327.69h151.64v-12.46H136.63V327.69z"/>
		</g>
	</g>
</g>
</svg>
