<?xml version="1.0" encoding="utf-8"?>
<!-- Generator: Adobe Illustrator 24.1.0, SVG Export Plug-In . SVG Version: 6.00 Build 0)  -->
<svg version="1.1" id="Layer_1" xmlns="http://www.w3.org/2000/svg" xmlns:xlink="http://www.w3.org/1999/xlink" x="0px" y="0px"
	 viewBox="0 0 640 640" style="enable-background:new 0 0 640 640;" xml:space="preserve">
<style type="text/css">
	.st0{fill:#141516;}
	.st1{fill:#231F20;}
	.st2{fill:#050505;}
	.st3{fill:#231F20;stroke:#000000;stroke-miterlimit:10;}
	.st4{fill:none;stroke:#000000;stroke-width:12;stroke-miterlimit:10;}
</style>
<g>
	<g>
		<path class="st1" d="M443.39,316.44c-20.92,0-37.95-22.91-37.95-51.08c0-28.16,17.02-51.08,37.95-51.08
			c20.92,0,37.95,22.91,37.95,51.08C481.33,293.53,464.31,316.44,443.39,316.44z M443.39,218.4c-18.65,0-33.83,21.07-33.83,46.96
			c0,25.9,15.18,46.96,33.83,46.96c18.66,0,33.83-21.07,33.83-46.96C477.22,239.47,462.04,218.4,443.39,218.4z"/>
	</g>
	<g>
		<path class="st2" d="M534.33,405.45H355l3-18.82c3.74-23.47,19.47-43.28,41.48-52.25h0l17.53-7.14l27.65,57.27l27.65-57.27
			l17.53,7.14h0c22.01,8.97,37.74,28.78,41.48,52.25L534.33,405.45z"/>
	</g>
	<g>
		<polygon class="st1" points="417.32,330.68 416.07,327.73 425.73,323.63 429.31,309.6 432.41,310.39 428.44,325.96 		"/>
	</g>
	<g>
		<polygon class="st1" points="471.83,330.68 460.71,325.96 456.74,310.39 459.84,309.6 463.42,323.63 473.08,327.73 		"/>
	</g>
	<g>
		<path class="st2" d="M406.28,262.89c0,0-0.34-39.25,26.9-31.29c0,0,12.16,3.15,25.15-1.15c0,0,20.96,1.57,18.86,33.85
			c0,0,7.55-15.93-0.42-47.79c-7.39-29.55-59.86-18.71-65.75-3.6c-1.14,2.91-2.44,5.76-3.83,8.56
			C404.16,227.6,400.08,242.95,406.28,262.89z"/>
	</g>
	<g>
		<path class="st2" d="M409.95,218.06c0,0-20,25.78-1.78,82.46"/>
	</g>
	<g>
		<path class="st2" d="M476.07,216.35c0,0,14.94,38.45,4.53,84.17"/>
	</g>
	<g>
		<path class="st1" d="M446.33,331.36c-2.45,0-4.99-0.28-7.62-0.84c-7.02-1.49-12.1-4.42-12.32-4.55l1.38-2.37
			c0.19,0.11,19.48,11.09,33.45,0.11l1.7,2.16C458.29,329.51,452.65,331.36,446.33,331.36z"/>
	</g>
	<g>
		<path class="st2" d="M400.56,259.29c0,0-5.36,10.2-1.66,24.99c2.62,10.49-1.26,19.03-3.75,23.12c-2.01,3.31-3.06,7.14-2.77,11
			c0.24,3.24,1.37,6.68,4.57,8.85c4.68,3.18,5.89,9.1,6.14,13.13c0.23,3.64,3.37,6.52,7.01,6.25c2-0.15,3.86-1.23,4.69-4.28
			c2.22-8.14,3.79-15.16,1.9-21.08s-1.59-9.58,0.85-11.26c0.61-0.42,1.09-1.07,1.47-1.81c1.3-2.55,1.12-5.6-0.28-8.09
			C413.96,291.66,400.43,267,400.56,259.29z"/>
	</g>
	<g>
		<circle class="st2" cx="444.58" cy="333.6" r="3.6"/>
	</g>
	<g>
		<g>
			<rect x="44.93" y="407.02" width="550.14" height="3.2"/>
		</g>
		<g>
			<rect x="74.81" y="408.62" width="3.2" height="33.52"/>
		</g>
		<g>
			<rect x="566.34" y="408.62" width="3.2" height="33.52"/>
		</g>
		<g>
			<rect x="120.89" y="389.88" class="st0" width="154.84" height="15.66"/>
			<path d="M277.34,407.14H119.29v-18.86h158.04V407.14z M122.49,403.94h151.64v-12.46H122.49V403.94z"/>
		</g>
		<g>
			<rect x="135.03" y="363.45" class="st0" width="154.84" height="15.66"/>
			<path d="M291.48,380.71H133.44v-18.86h158.04V380.71z M136.63,377.51h151.64v-12.46H136.63V377.51z"/>
		</g>
		<g>
			<rect x="106.72" y="338.46" class="st0" width="154.84" height="15.66"/>
			<path d="M263.16,355.72H105.12v-18.86h158.04V355.72z M108.32,352.52h151.64v-12.46H108.32V352.52z"/>
		</g>
		<g>
			<rect x="135.03" y="315.21" class="st0" width="154.84" height="15.66"/>
			<path d="M291.48,332.47H133.44v-18.86h158.04V332.47z M136.63,329.27h151.64v-12.46H136.63V329.27z"/>
		</g>
	</g>
</g>
</svg>
