<?xml version="1.0" encoding="utf-8"?>
<!-- Generator: Adobe Illustrator 24.1.0, SVG Export Plug-In . SVG Version: 6.00 Build 0)  -->
<svg version="1.1" id="Layer_1" xmlns="http://www.w3.org/2000/svg" xmlns:xlink="http://www.w3.org/1999/xlink" x="0px" y="0px"
	 viewBox="0 0 640 640" style="enable-background:new 0 0 640 640;" xml:space="preserve">
<style type="text/css">
	.st0{fill:#141516;}
	.st1{fill:#231F20;}
	.st2{fill:#050505;}
	.st3{fill:#231F20;stroke:#000000;stroke-miterlimit:10;}
	.st4{fill:none;stroke:#000000;stroke-width:12;stroke-miterlimit:10;}
</style>
<g>
	<g>
		<g>
			<path class="st1" d="M431.26,317.59c-20.92,0-37.95-22.91-37.95-51.08c0-28.16,17.02-51.08,37.95-51.08
				c20.92,0,37.95,22.91,37.95,51.08C469.21,294.68,452.19,317.59,431.26,317.59z M431.26,219.55c-18.66,0-33.83,21.07-33.83,46.96
				c0,25.89,15.18,46.96,33.83,46.96c18.65,0,33.83-21.07,33.83-46.96C465.1,240.62,449.92,219.55,431.26,219.55z"/>
		</g>
		<g>
			<path class="st2" d="M522.21,406.6H342.88l3-18.82c3.74-23.47,19.47-43.28,41.48-52.25h0l17.53-7.14l18.21,37.72
				c3.81,7.9,15.06,7.9,18.88,0l18.21-37.72l17.53,7.14h0c22.01,8.97,37.74,28.78,41.48,52.25L522.21,406.6z"/>
		</g>
		<g>
			<polygon class="st1" points="405.2,331.83 403.95,328.88 413.61,324.78 417.19,310.75 420.29,311.54 416.32,327.11 			"/>
		</g>
		<g>
			<polygon class="st1" points="459.71,331.83 448.59,327.11 444.62,311.54 447.72,310.75 451.3,324.78 460.96,328.88 			"/>
		</g>
		<g>
			<path class="st2" d="M394.16,264.04c0,0-0.34-39.25,26.9-31.29c0,0,12.16,3.15,25.15-1.15c0,0,20.96,1.57,18.86,33.85
				c0,0,7.55-15.93-0.42-47.79c-7.39-29.55-59.86-18.71-65.75-3.6c-1.14,2.91-2.44,5.76-3.83,8.56
				C392.03,228.75,387.96,244.1,394.16,264.04z"/>
		</g>
	</g>
	<g>
		<g>
			<rect x="44.93" y="405.87" width="550.14" height="3.2"/>
		</g>
		<g>
			<rect x="74.81" y="407.47" width="3.2" height="33.52"/>
		</g>
		<g>
			<rect x="566.34" y="407.47" width="3.2" height="33.52"/>
		</g>
		<g>
			<rect x="120.89" y="388.73" class="st0" width="154.84" height="15.66"/>
			<path d="M277.34,405.99H119.29v-18.86h158.04V405.99z M122.49,402.79h151.64v-12.46H122.49V402.79z"/>
		</g>
		<g>
			<rect x="135.03" y="362.3" class="st0" width="154.84" height="15.66"/>
			<path d="M291.48,379.56H133.43V360.7h158.04V379.56z M136.63,376.36h151.64V363.9H136.63V376.36z"/>
		</g>
		<g>
			<rect x="106.72" y="337.31" class="st0" width="154.84" height="15.66"/>
			<path d="M263.16,354.57H105.12v-18.86h158.04V354.57z M108.32,351.37h151.64v-12.46H108.32V351.37z"/>
		</g>
		<g>
			<rect x="135.03" y="314.06" class="st0" width="154.84" height="15.66"/>
			<path d="M291.48,331.32H133.43v-18.86h158.04V331.32z M136.63,328.12h151.64v-12.46H136.63V328.12z"/>
		</g>
	</g>
</g>
</svg>
