<?xml version="1.0" encoding="utf-8"?>
<!-- Generator: Adobe Illustrator 24.1.0, SVG Export Plug-In . SVG Version: 6.00 Build 0)  -->
<svg version="1.1" id="Layer_1" xmlns="http://www.w3.org/2000/svg" xmlns:xlink="http://www.w3.org/1999/xlink" x="0px" y="0px"
	 viewBox="0 0 640 640" style="enable-background:new 0 0 640 640;" xml:space="preserve">
<style type="text/css">
	.st0{fill:#141516;}
	.st1{fill:#231F20;}
	.st2{fill:#050505;}
	.st3{fill:#231F20;stroke:#000000;stroke-miterlimit:10;}
	.st4{fill:none;stroke:#000000;stroke-width:12;stroke-miterlimit:10;}
</style>
<g>
	<g>
		<g>
			<path class="st1" d="M433.16,317.81c-20.92,0-37.95-22.91-37.95-51.08c0-28.16,17.02-51.08,37.95-51.08
				c20.92,0,37.95,22.91,37.95,51.08C471.1,294.89,454.08,317.81,433.16,317.81z M433.16,219.77c-18.65,0-33.83,21.07-33.83,46.96
				c0,25.89,15.18,46.96,33.83,46.96c18.66,0,33.83-21.07,33.83-46.96C466.99,240.84,451.81,219.77,433.16,219.77z"/>
		</g>
		<g>
			<path class="st2" d="M524.1,406.82H344.77l5.25-32.91c2.35-14.72,12.21-27.15,26.02-32.77l13.22-5.38l17.53-7.14l9.76,20.21
				c7.23,14.97,28.56,14.97,35.79,0l9.76-20.21l17.53,7.14l13.22,5.38c13.81,5.62,23.67,18.05,26.02,32.77L524.1,406.82z"/>
		</g>
		<g>
			<polygon class="st1" points="407.09,332.04 405.84,329.1 415.5,325 419.08,310.97 422.19,311.76 418.21,327.32 			"/>
		</g>
		<g>
			<polygon class="st1" points="461.61,332.04 450.48,327.32 446.51,311.76 449.61,310.97 453.19,325 462.86,329.1 			"/>
		</g>
		<g>
			<path class="st2" d="M396.05,264.26c0,0-0.34-39.25,26.9-31.29c0,0,12.16,3.15,25.15-1.15c0,0,20.96,1.57,18.86,33.85
				c0,0,7.55-15.93-0.42-47.79c-7.39-29.55-59.86-18.71-65.75-3.6c-1.14,2.91-2.44,5.76-3.83,8.56
				C393.93,228.97,389.86,244.32,396.05,264.26z"/>
		</g>
	</g>
	<g>
		<g>
			<rect x="44.93" y="405.65" width="550.14" height="3.2"/>
		</g>
		<g>
			<rect x="74.81" y="407.25" width="3.2" height="33.52"/>
		</g>
		<g>
			<rect x="566.34" y="407.25" width="3.2" height="33.52"/>
		</g>
		<g>
			<rect x="120.89" y="388.52" class="st0" width="154.84" height="15.66"/>
			<path d="M277.34,405.78H119.29v-18.86h158.04V405.78z M122.49,402.58h151.64v-12.46H122.49V402.58z"/>
		</g>
		<g>
			<rect x="135.03" y="362.08" class="st0" width="154.84" height="15.66"/>
			<path d="M291.48,379.34H133.43v-18.86h158.04V379.34z M136.63,376.14h151.64v-12.46H136.63V376.14z"/>
		</g>
		<g>
			<rect x="106.72" y="337.1" class="st0" width="154.84" height="15.66"/>
			<path d="M263.16,354.36H105.12V335.5h158.04V354.36z M108.32,351.16h151.64V338.7H108.32V351.16z"/>
		</g>
		<g>
			<rect x="135.03" y="313.84" class="st0" width="154.84" height="15.66"/>
			<path d="M291.48,331.1H133.43v-18.86h158.04V331.1z M136.63,327.9h151.64v-12.46H136.63V327.9z"/>
		</g>
	</g>
</g>
</svg>
