<?xml version="1.0" encoding="utf-8"?>
<!-- Generator: Adobe Illustrator 24.1.0, SVG Export Plug-In . SVG Version: 6.00 Build 0)  -->
<svg version="1.1" id="Layer_1" xmlns="http://www.w3.org/2000/svg" xmlns:xlink="http://www.w3.org/1999/xlink" x="0px" y="0px"
	 viewBox="0 0 640 640" style="enable-background:new 0 0 640 640;" xml:space="preserve">
<style type="text/css">
	.st0{fill:#141516;}
	.st1{fill:#231F20;}
	.st2{fill:#050505;}
	.st3{fill:#231F20;stroke:#000000;stroke-miterlimit:10;}
	.st4{fill:none;stroke:#000000;stroke-width:12;stroke-miterlimit:10;}
</style>
<g>
	<path class="st3" d="M283.06,421.37c0,0,15.93-120.73,60.78-130.79c44.85-10.06,101.45,42.34,101.45,42.34s-27.25,13.41-88.87-7.96
		L283.06,421.37z"/>
	<ellipse class="st3" cx="355.86" cy="230.44" rx="14.2" ry="15.52"/>
	<path class="st3" d="M300.32,213.47l9.57,42.59c0.44,1.96,2.18,3.36,4.19,3.36h22.86c0,0-5.02,16.24-31.46,17.02
		c-3.23,0.1-6.2-1.77-7.53-4.72C293.4,261.62,285.16,236.85,300.32,213.47z"/>
	<path class="st3" d="M360.25,263.74c0,0,19.31-29.3,31.96-24.3c12.65,4.99,24.3,43.95,18.98,61.26c0,0-12.98-24.42-18.73-35.53
		c-1.46-2.82-4.84-4.06-7.78-2.86C375.15,266.21,356.23,273.03,360.25,263.74z"/>
	<circle class="st3" cx="227.95" cy="393.29" r="33.24"/>
</g>
</svg>
